<?xml version="1.0" encoding="utf-8"?>
<!-- Generator: Adobe Illustrator 25.4.0, SVG Export Plug-In . SVG Version: 6.00 Build 0)  -->
<svg version="1.1" id="Layer_1" xmlns="http://www.w3.org/2000/svg" xmlns:xlink="http://www.w3.org/1999/xlink" x="0px" y="0px"
	 viewBox="0 0 73 73" style="enable-background:new 0 0 73 73;" xml:space="preserve">
<style type="text/css">
	.st0{fill:#0C7BAB;}
</style>
<path class="st0" d="M0,67.8c0-1.6,0-3.2,0-4.8c0.3-0.6,0.8-0.8,1.4-0.8c0.5,0,1.1,0,1.7,0c0-0.4,0-0.7,0-1c0-11.7,0-23.3,0-35
	c0-0.2,0-0.5,0-0.7C3.2,24.1,4.2,23,5.7,23c1.5,0,3.1,0,4.6,0c0.2,0,0.5,0,0.8,0c0-0.4,0-0.7,0-1c0-5.5,0-11,0-16.5
	c0-1.1,0.3-1.4,1.4-1.4c0.9,0,1.8,0,2.7,0c0-1,0-1.8,0-2.7c0-0.6,0.2-1,0.7-1.4c14.8,0,29.5,0,44.3,0c0.6,0.4,0.6,0.9,0.6,1.5
	c0,6.8,0,13.6,0,20.5c0,0.3,0,0.6,0,0.9c1.8,0,3.5,0,5.3,0c0.6,0,1.3,0.2,1.8,0.5c0.9,0.5,1.1,1.5,1.1,2.5c0,11.8,0,23.5,0,35.3
	c0,0.3,0,0.5,0,0.9c0.6,0,1.1,0,1.7,0c0.7,0,1.1,0.2,1.4,0.8c0,1.6,0,3.2,0,4.8c-0.5,2.2-1.7,3.8-3.9,4.4c-21.4,0-42.8,0-64.2,0
	c-1.8-0.5-3-1.5-3.6-3.4C0.2,68.4,0.1,68.1,0,67.8z M54.8,57.6c0-17.2,0-34.3,0-51.4c-13.9,0-27.7,0-41.6,0c0,17.1,0,34.3,0,51.4
	C27.1,57.6,40.9,57.6,54.8,57.6z M2,64.2c0,1.2-0.1,2.3,0,3.4c0.2,1.6,1.3,2.6,2.8,2.6c20.8,0,41.5,0,62.3,0c1.3,0,2.4-0.6,2.6-1.9
	c0.3-1.3,0.2-2.7,0.3-4c-8.8,0-17.4,0-26.1,0c0,0.3,0,0.6,0,0.9c0,1.7-1.2,3-3,3c-3.4,0-6.7,0-10.1,0c-1.7,0-2.9-1.3-2.9-3
	c0-0.3,0-0.6,0-0.9C19.3,64.2,10.7,64.2,2,64.2z M66.9,62.2c0-0.3,0-0.5,0-0.7c0-11.8,0-23.5,0-35.2c0-0.2,0.1-0.5,0-0.6
	c-0.1-0.2-0.4-0.6-0.6-0.6c-1.8,0-3.6,0-5.4,0c0,0.7,0,1.3,0,1.9c0.1,0,0.1,0,0.2,0c0.8,0,1.6,0,2.5,0c1.2,0,1.4,0.3,1.4,1.4
	c0,9.9,0,19.8,0,29.7c0,1.2-0.3,1.5-1.5,1.5c-5.7,0-11.3,0-17,0s-11.3-0.1-17,0c-5.6,0.1-11.3-0.4-16.9,0.2
	c-1.4,0.1-2.8-0.2-4.2-0.3c-0.9-0.1-1.3-0.4-1.3-1.3c0-10,0-20.1,0-30.1c0-0.9,0.3-1.3,1.3-1.3c0.9,0,1.9,0,2.8,0c0-0.7,0-1.3,0-2
	c-1.6,0-3.3,0-4.9,0c-1.1,0-1.2,0.1-1.2,1.2c0,11.8,0,23.5,0,35.2c0,0.2,0,0.5,0,0.7C25.8,62.2,46.3,62.2,66.9,62.2z M58.8,57.6
	c0-18.5,0-37,0-55.5c-13.9,0-27.7,0-41.6,0c0,0.7,0,1.4,0,2.1c0.4,0,0.7,0,1,0c12.3,0,24.6,0,36.9,0c0.2,0,0.5,0,0.7,0
	c0.6,0,0.9,0.4,1,0.9c0,0.3,0,0.6,0,0.8c0,16.9,0,33.8,0,50.7c0,0.3,0,0.6,0,0.9C57.5,57.6,58.2,57.6,58.8,57.6z M63,57.6
	c0-9.6,0-19.1,0-28.6c-0.7,0-1.4,0-2.1,0c0,9.6,0,19.1,0,28.6C61.6,57.6,62.2,57.6,63,57.6z M9.1,28.9c0,9.6,0,19.1,0,28.6
	c0.7,0,1.4,0,2.1,0c0-9.6,0-19.1,0-28.6C10.4,28.9,9.8,28.9,9.1,28.9z M30,64.2c-0.2,1.7,0.1,2,1.6,2c3,0,5.9,0,8.9,0
	c1.4,0,1.8-0.6,1.4-2c-3.7,0-7.3,0-11,0C30.6,64.2,30.4,64.2,30,64.2z"/>
<path class="st0" d="M47.3,50.9c0,0.7,0,1.4,0,2c0,0.8-0.3,1.1-1.1,1.1c-1.3,0-2.6,0-3.9,0c-0.8,0-1.1-0.4-1.1-1.2
	c0-0.6,0-1.2,0-1.8c0,0,0,0-0.1-0.1c-0.5,0-1.1,0-1.8,0c-0.9,0-1.3-0.3-1.3-1.2c0-1.2,0-2.4,0-3.7c0-0.9,0.3-1.3,1.2-1.3
	c0.6,0,1.2,0,1.9,0c0-0.7,0-1.3,0-1.9c0-0.9,0.3-1.2,1.2-1.2c1.2,0,2.5,0,3.7,0c0.9,0,1.2,0.3,1.2,1.2c0,0.6,0,1.2,0,1.9
	c0.7,0,1.3,0,2,0c0.8,0,1.2,0.4,1.2,1.2c0,1.3,0,2.5,0,3.8c0,0.8-0.4,1.2-1.2,1.2C48.6,50.9,48,50.9,47.3,50.9z M43,43.5
	c0,0.7,0,1.3,0,1.9c0,0.9-0.3,1.2-1.2,1.2c-0.6,0-1.2,0-1.9,0c0,0.8,0,1.5,0,2.3c0.6,0,1.2,0,1.8,0c1,0,1.3,0.3,1.3,1.2
	c0,0.6,0,1.2,0,1.9c0.8,0,1.5,0,2.2,0c0-0.7,0-1.3,0-1.9c0-0.8,0.4-1.1,1.2-1.2c0.6,0,1.3,0,2,0c0-0.8,0-1.5,0-2.2
	c-0.1,0-0.1,0-0.2,0c-0.6,0-1.2,0-1.8,0c-0.8,0-1.2-0.4-1.2-1.2c0-0.6,0-1.2,0-1.9C44.5,43.5,43.8,43.5,43,43.5z"/>
<path class="st0" d="M25.5,47c-2.5,0-4.9,0-7.4,0c-0.2,0-0.4,0-0.5-0.1c-0.4-0.1-0.6-0.5-0.5-1c0.1-0.3,0.3-0.6,0.6-0.9
	c0.1-0.1,0.3,0,0.5,0c4.9,0,9.8,0,14.7,0c0.2,0,0.3,0,0.5,0c0.4,0.1,0.6,0.4,0.6,1c0,0.5-0.2,0.8-0.6,0.9c-0.2,0-0.4,0-0.5,0
	C30.4,47,27.9,47,25.5,47z"/>
<path class="st0" d="M25.5,52c-2.4,0-4.9,0-7.3,0c-0.2,0-0.5,0.1-0.6-0.1c-0.2-0.2-0.5-0.5-0.6-0.9c-0.1-0.5,0.1-0.9,0.5-1
	C17.8,50,18,50,18.2,50c4.9,0,9.7,0,14.6,0c0.1,0,0.1,0,0.2,0c0.6,0,1,0.4,1,1c0,0.6-0.4,1-1,1C30.5,52,28,52,25.5,52z"/>
<path class="st0" d="M40.5,24.7c2.9,0,5.8,0,8.7,0c0.9,0,1.3,0.4,1.3,1c0,0.6-0.5,1-1.3,1c-5.8,0-11.6,0-17.4,0
	c-0.8,0-1.3-0.4-1.3-1c0-0.6,0.4-1,1.3-1C34.7,24.7,37.6,24.7,40.5,24.7z"/>
<path class="st0" d="M40.5,37.2c-2.9,0-5.7,0-8.6,0c-0.2,0-0.4,0-0.6,0c-0.5-0.1-0.8-0.5-0.8-1c0-0.5,0.3-0.8,0.8-0.9
	c0.2,0,0.5,0,0.7,0c5.6,0,11.2,0,16.9,0c0.2,0,0.4,0,0.6,0c0.6,0,0.9,0.4,1,0.9c0.1,0.5-0.4,1-0.9,1c-0.2,0-0.4,0-0.6,0
	C46.1,37.2,43.3,37.2,40.5,37.2z"/>
<path class="st0" d="M40.5,31.9c-2.8,0-5.6,0-8.4,0c-0.3,0-0.6,0.1-0.8-0.1c-0.3-0.2-0.6-0.6-0.7-0.9c0-0.3,0.3-0.6,0.6-0.9
	c0.2-0.1,0.5-0.1,0.7-0.1c5.7,0,11.4,0,17.1,0c0.3,0,0.6,0,0.7,0.1c0.3,0.2,0.7,0.6,0.6,0.9c0,0.3-0.4,0.7-0.7,0.9
	c-0.2,0.1-0.5,0.1-0.8,0.1C46.1,31.9,43.3,31.9,40.5,31.9z"/>
<path class="st0" d="M24.6,27.2c0,0.8-0.4,1.2-0.9,1.2c-0.5,0-0.9-0.4-1-1c-0.1-1-0.7-1.6-1.6-1.7c-0.8-0.1-1.6,0.5-1.8,1.3
	c-0.3,1,0.4,2.1,1.5,2.2c0.4,0.1,0.8,0.1,1.2,0.2c1.5,0.4,2.5,1.7,2.6,3.2c0.1,1.6-0.7,3-2.2,3.6c-0.5,0.2-0.6,0.4-0.6,0.9
	c0,0.4,0,0.7,0,1.1c-0.1,0.5-0.4,0.8-0.9,0.8c-0.5,0-0.9-0.3-0.9-0.8c0-0.4,0-0.8,0-1.3c0-0.3-0.1-0.5-0.4-0.6
	c-1.4-0.6-2.1-1.6-2.3-3.1c-0.1-0.5,0-0.9,0.5-1.1c0.6-0.3,1.3,0,1.4,0.7c0,0.2,0,0.4,0.1,0.6c0.3,0.8,1,1.3,1.9,1.2
	c0.8-0.1,1.4-0.8,1.5-1.7c0-0.8-0.6-1.6-1.4-1.7c-0.4-0.1-0.8-0.1-1.1-0.1c-1.6-0.3-2.7-1.7-2.9-3.2c-0.1-1.6,0.7-3.1,2.2-3.7
	c0.4-0.2,0.6-0.4,0.5-0.8c0-0.4,0-0.7,0-1.1c0.1-0.5,0.4-0.8,0.9-0.8c0.5,0,0.9,0.3,0.9,0.8c0,0.4,0.1,0.8,0,1.2
	c0,0.4,0.1,0.6,0.5,0.7C23.8,24.8,24.5,25.9,24.6,27.2z"/>
<path class="st0" d="M19,14.4h-1.5v2.5c0,0.4-0.1,0.6-0.2,0.8c-0.2,0.2-0.4,0.3-0.6,0.3c-0.3,0-0.5-0.1-0.6-0.3
	c-0.2-0.2-0.2-0.4-0.2-0.8v-6.7c0-0.4,0.1-0.7,0.3-0.8c0.2-0.2,0.4-0.2,0.8-0.2H19c0.6,0,1.1,0,1.5,0.2c0.3,0.1,0.6,0.3,0.9,0.5
	c0.2,0.2,0.4,0.5,0.6,0.8c0.1,0.3,0.2,0.7,0.2,1.1c0,0.9-0.3,1.6-0.8,2C20.8,14.2,20.1,14.4,19,14.4z M18.6,10.4h-1.1v2.7h1.1
	c0.4,0,0.7,0,1-0.1c0.3-0.1,0.5-0.2,0.6-0.4c0.1-0.2,0.2-0.5,0.2-0.8c0-0.4-0.1-0.7-0.3-0.9C19.9,10.6,19.4,10.4,18.6,10.4z"/>
<path class="st0" d="M30.6,15.1c0,0.3-0.1,0.6-0.2,0.9c-0.1,0.3-0.3,0.6-0.6,1c-0.3,0.3-0.6,0.6-1.1,0.8c-0.4,0.2-0.9,0.3-1.5,0.3
	c-0.4,0-0.8,0-1.2-0.1c-0.4-0.1-0.7-0.2-1-0.4c-0.3-0.2-0.6-0.4-0.8-0.7c-0.2-0.3-0.4-0.6-0.6-0.9c-0.2-0.3-0.3-0.7-0.3-1.1
	c-0.1-0.4-0.1-0.8-0.1-1.2c0-0.7,0.1-1.3,0.3-1.9c0.2-0.6,0.5-1,0.8-1.4c0.4-0.4,0.8-0.7,1.3-0.9c0.5-0.2,1-0.3,1.5-0.3
	c0.7,0,1.3,0.1,1.8,0.4c0.5,0.3,0.9,0.6,1.2,1c0.3,0.4,0.4,0.8,0.4,1.2c0,0.2-0.1,0.4-0.2,0.5c-0.1,0.2-0.3,0.2-0.5,0.2
	c-0.2,0-0.4,0-0.5-0.2c-0.1-0.1-0.2-0.3-0.4-0.6c-0.2-0.4-0.5-0.8-0.8-1c-0.3-0.2-0.7-0.3-1.1-0.3c-0.7,0-1.2,0.3-1.7,0.8
	c-0.4,0.6-0.6,1.3-0.6,2.4c0,0.7,0.1,1.2,0.3,1.7c0.2,0.5,0.4,0.8,0.8,1c0.3,0.2,0.7,0.3,1.2,0.3c0.5,0,0.9-0.1,1.2-0.4
	c0.3-0.2,0.6-0.6,0.8-1.1c0.1-0.2,0.2-0.4,0.3-0.6c0.1-0.1,0.3-0.2,0.5-0.2c0.2,0,0.4,0.1,0.5,0.2C30.5,14.7,30.6,14.9,30.6,15.1z"
	/>
<path class="st0" d="M35.7,9c0.9,0,1.6,0.2,2.2,0.6c0.6,0.4,1.1,0.9,1.4,1.6c0.3,0.7,0.5,1.5,0.5,2.4c0,0.7-0.1,1.3-0.3,1.8
	c-0.2,0.6-0.4,1-0.8,1.4c-0.3,0.4-0.8,0.7-1.3,0.9C37,17.9,36.4,18,35.8,18c-0.6,0-1.2-0.1-1.7-0.3c-0.5-0.2-0.9-0.5-1.3-0.9
	c-0.3-0.4-0.6-0.9-0.8-1.4c-0.2-0.6-0.3-1.2-0.3-1.8c0-0.7,0.1-1.3,0.3-1.9c0.2-0.6,0.4-1,0.8-1.4c0.3-0.4,0.8-0.7,1.3-0.9
	C34.5,9.1,35.1,9,35.7,9z M38.1,13.4c0-0.6-0.1-1.2-0.3-1.7c-0.2-0.5-0.5-0.8-0.8-1.1c-0.4-0.2-0.8-0.4-1.2-0.4
	c-0.3,0-0.6,0.1-0.9,0.2c-0.3,0.1-0.5,0.3-0.7,0.6c-0.2,0.3-0.4,0.6-0.5,1s-0.2,0.8-0.2,1.3c0,0.5,0.1,0.9,0.2,1.3s0.3,0.7,0.5,1
	c0.2,0.3,0.5,0.5,0.7,0.6c0.3,0.1,0.6,0.2,0.9,0.2c0.4,0,0.8-0.1,1.2-0.3c0.4-0.2,0.6-0.6,0.9-1C38,14.7,38.1,14.1,38.1,13.4z"/>
<path class="st0" d="M43.5,14.1h-0.6v2.8c0,0.4-0.1,0.6-0.2,0.8c-0.2,0.2-0.4,0.3-0.6,0.3c-0.3,0-0.5-0.1-0.6-0.3
	c-0.1-0.2-0.2-0.5-0.2-0.8v-6.7c0-0.4,0.1-0.6,0.2-0.8c0.2-0.2,0.4-0.3,0.8-0.3H45c0.4,0,0.7,0,1,0c0.3,0,0.5,0.1,0.7,0.2
	c0.3,0.1,0.5,0.3,0.7,0.5c0.2,0.2,0.3,0.5,0.5,0.7c0.1,0.3,0.2,0.6,0.2,0.9c0,0.6-0.2,1.2-0.5,1.6c-0.3,0.4-0.9,0.7-1.6,0.8
	c0.3,0.2,0.6,0.4,0.8,0.7c0.3,0.3,0.5,0.7,0.7,1c0.2,0.4,0.4,0.7,0.5,1c0.1,0.3,0.2,0.5,0.2,0.6c0,0.1,0,0.2-0.1,0.3
	c-0.1,0.1-0.2,0.2-0.3,0.3c-0.1,0.1-0.3,0.1-0.4,0.1c-0.2,0-0.3,0-0.5-0.1c-0.1-0.1-0.2-0.2-0.3-0.4c-0.1-0.1-0.2-0.4-0.4-0.6
	l-0.7-1.2c-0.2-0.4-0.5-0.8-0.6-1c-0.2-0.2-0.4-0.4-0.6-0.5C44.1,14.1,43.8,14.1,43.5,14.1z M44.5,10.4h-1.5v2.4h1.5
	c0.4,0,0.7,0,1-0.1c0.3-0.1,0.5-0.2,0.6-0.4c0.1-0.2,0.2-0.4,0.2-0.7c0-0.2-0.1-0.5-0.2-0.6c-0.1-0.2-0.3-0.3-0.5-0.4
	C45.4,10.5,45,10.4,44.5,10.4z"/>
<path class="st0" d="M49.6,16.9V10c0-0.4,0.1-0.6,0.2-0.8C50,9.1,50.2,9,50.5,9c0.3,0,0.5,0.1,0.6,0.3c0.2,0.2,0.2,0.4,0.2,0.8v6.9
	c0,0.4-0.1,0.6-0.2,0.8c-0.2,0.2-0.4,0.3-0.6,0.3c-0.2,0-0.4-0.1-0.6-0.3C49.7,17.5,49.6,17.3,49.6,16.9z"/>
</svg>
