<?xml version="1.0" encoding="utf-8"?>
<!-- Generator: Adobe Illustrator 25.4.0, SVG Export Plug-In . SVG Version: 6.00 Build 0)  -->
<svg version="1.1" id="Layer_1" xmlns="http://www.w3.org/2000/svg" xmlns:xlink="http://www.w3.org/1999/xlink" x="0px" y="0px"
	 viewBox="0 0 151 111" style="enable-background:new 0 0 151 111;" xml:space="preserve">
<style type="text/css">
	.st0{display:none;}
	.st1{display:inline;fill:url(#SVGID_1_);}
	.st2{display:inline;fill:url(#SVGID_00000133490105427879492050000007203171936830952112_);}
	.st3{display:inline;fill:url(#SVGID_00000111911711575634908530000013777352190399495577_);}
	.st4{display:inline;fill:url(#SVGID_00000050661301860481257510000015059305072108469428_);}
	.st5{display:inline;fill:url(#SVGID_00000062872245460176419620000004293949788075442873_);}
	.st6{display:inline;fill:url(#SVGID_00000168838955382517434620000000826674819872906404_);}
	.st7{display:inline;fill:url(#SVGID_00000076569800355140411430000002397765776695596221_);}
	.st8{fill:none;stroke:url(#SVGID_00000070797074918503854160000004453365384234980277_);stroke-width:0.75;stroke-miterlimit:10;}
	.st9{fill:none;stroke:url(#SVGID_00000026885333523765241840000010069283701991484341_);stroke-width:0.75;stroke-miterlimit:10;}
	.st10{fill:none;stroke:url(#SVGID_00000158749675412121146750000015650672165310445491_);stroke-width:0.75;stroke-miterlimit:10;}
	.st11{fill:none;stroke:url(#SVGID_00000143607976944491587290000013176066709193570228_);stroke-width:0.75;stroke-miterlimit:10;}
	.st12{fill:none;stroke:url(#SVGID_00000048476131774655908270000008673342469501177790_);stroke-width:0.75;stroke-miterlimit:10;}
	.st13{fill:none;stroke:url(#SVGID_00000036244623516482300170000008096317561849572504_);stroke-width:0.75;stroke-miterlimit:10;}
</style>
<g class="st0">
	
		<linearGradient id="SVGID_1_" gradientUnits="userSpaceOnUse" x1="155.6764" y1="131.601" x2="120.9134" y2="121.3145" gradientTransform="matrix(0.9982 6.077340e-02 6.077340e-02 -0.9982 -34.8409 115.4254)">
		<stop  offset="0" style="stop-color:#0C7BAB"/>
		<stop  offset="0.6017" style="stop-color:#0C7BAB"/>
		<stop  offset="0.6521" style="stop-color:#207A9B"/>
		<stop  offset="0.7551" style="stop-color:#537772"/>
		<stop  offset="0.9002" style="stop-color:#A47330"/>
		<stop  offset="1" style="stop-color:#E07000"/>
	</linearGradient>
	<path class="st1" d="M125.7,54.6c-3.8,2.6-9.1,1.6-11.7-2.3L66.9-17.4c-2.6-3.9-1.6-9.1,2.3-11.8l50-33.8
		c14.7-9.9,34.8-6.1,44.7,8.7L184.3-24c9.9,14.7,6.1,34.8-8.6,44.7L125.7,54.6z M126,55l50-33.8c15-10.1,18.8-30.4,8.7-45.5
		l-20.5-30.4c-10.1-15-30.4-18.9-45.4-8.8l-50,33.8c-4.1,2.7-5.2,8.4-2.4,12.5l47.1,69.8C116.3,56.7,121.9,57.8,126,55z"/>
	
		<linearGradient id="SVGID_00000108992796387232142730000000968611288437199004_" gradientUnits="userSpaceOnUse" x1="168.8909" y1="135.4433" x2="134.1279" y2="125.1569" gradientTransform="matrix(0.9982 6.077340e-02 6.077340e-02 -0.9982 -34.8409 115.4254)">
		<stop  offset="0" style="stop-color:#0C7BAB"/>
		<stop  offset="0.6017" style="stop-color:#0C7BAB"/>
		<stop  offset="0.6521" style="stop-color:#207A9B"/>
		<stop  offset="0.7551" style="stop-color:#537772"/>
		<stop  offset="0.9002" style="stop-color:#A47330"/>
		<stop  offset="1" style="stop-color:#E07000"/>
	</linearGradient>
	<path style="display:inline;fill:url(#SVGID_00000108992796387232142730000000968611288437199004_);" d="M139.1,51.5
		c-3.8,2.6-9.1,1.6-11.7-2.3L80.3-20.5c-2.6-3.9-1.6-9.1,2.3-11.8l50-33.8c14.7-9.9,34.8-6.1,44.7,8.7L197.8-27
		c9.9,14.7,6.1,34.8-8.6,44.7L139.1,51.5z M139.4,52l50-33.8c15-10.1,18.8-30.4,8.7-45.5l-20.5-30.4c-10.1-15-30.4-18.9-45.4-8.8
		l-50,33.8c-4.1,2.7-5.2,8.4-2.4,12.5L127,49.5C129.7,53.6,135.3,54.7,139.4,52z"/>
	
		<linearGradient id="SVGID_00000063626203584512488940000004719364649209214901_" gradientUnits="userSpaceOnUse" x1="142.7757" y1="129.4857" x2="108.086" y2="119.221" gradientTransform="matrix(0.9982 6.077340e-02 6.077340e-02 -0.9982 -34.8409 115.4254)">
		<stop  offset="0" style="stop-color:#0C7BAB"/>
		<stop  offset="0.6017" style="stop-color:#0C7BAB"/>
		<stop  offset="0.6521" style="stop-color:#207A9B"/>
		<stop  offset="0.7551" style="stop-color:#537772"/>
		<stop  offset="0.9002" style="stop-color:#A47330"/>
		<stop  offset="1" style="stop-color:#E07000"/>
	</linearGradient>
	<path style="display:inline;fill:url(#SVGID_00000063626203584512488940000004719364649209214901_);" d="M119.7,53.2
		c-7.7,5.2-18.2,3.2-23.5-4.6L58.5-7.2c-5.2-7.7-3.2-18.3,4.5-23.5l47-31.8c12.6-8.5,29.6-5.2,38.1,7.4L174-16.7
		c8.5,12.6,5.2,29.7-7.4,38.1L119.7,53.2z M119.9,53.6l47-31.7c12.8-8.6,16.1-26.1,7.5-38.9l-25.8-38.3c-8.6-12.8-26-16.2-38.8-7.6
		l-47,31.8c-7.9,5.4-10,16.2-4.6,24.1l37.7,55.8C101.2,56.9,112,59,119.9,53.6z"/>
	
		<linearGradient id="SVGID_00000107588512179594918050000010508798833530745750_" gradientUnits="userSpaceOnUse" x1="129.9726" y1="127.415" x2="95.3541" y2="117.1713" gradientTransform="matrix(0.9982 6.077340e-02 6.077340e-02 -0.9982 -34.8409 115.4254)">
		<stop  offset="0" style="stop-color:#0C7BAB"/>
		<stop  offset="0.6017" style="stop-color:#0C7BAB"/>
		<stop  offset="0.6521" style="stop-color:#207A9B"/>
		<stop  offset="0.7551" style="stop-color:#537772"/>
		<stop  offset="0.9002" style="stop-color:#A47330"/>
		<stop  offset="1" style="stop-color:#E07000"/>
	</linearGradient>
	<path style="display:inline;fill:url(#SVGID_00000107588512179594918050000010508798833530745750_);" d="M113.5,51.7
		c-11.6,7.8-27.3,4.7-35.1-6.8L50.2,3C42.4-8.6,45.5-24.4,57-32.2l43.9-29.7c10.3-7.1,24.5-4.2,31.6,6.1l31.3,46.2
		c7,10.4,4.3,24.6-6.1,31.6L113.5,51.7z M113.8,52.2l43.9-29.8c10.6-7.2,13.4-21.6,6.2-32.2L132.8-56c-7.2-10.7-21.6-13.4-32.2-6.2
		L56.7-32.6c-11.8,8-14.9,24-6.9,35.9l28.3,41.8C86,57.1,102.1,60.2,113.8,52.2z"/>
	
		<linearGradient id="SVGID_00000008108128743480065270000015451504205281399996_" gradientUnits="userSpaceOnUse" x1="117.0381" y1="125.3957" x2="82.4926" y2="115.1737" gradientTransform="matrix(0.9982 6.077340e-02 6.077340e-02 -0.9982 -34.8409 115.4254)">
		<stop  offset="0" style="stop-color:#0C7BAB"/>
		<stop  offset="0.6017" style="stop-color:#0C7BAB"/>
		<stop  offset="0.6521" style="stop-color:#207A9B"/>
		<stop  offset="0.7551" style="stop-color:#537772"/>
		<stop  offset="0.9002" style="stop-color:#A47330"/>
		<stop  offset="1" style="stop-color:#E07000"/>
	</linearGradient>
	<path style="display:inline;fill:url(#SVGID_00000008108128743480065270000015451504205281399996_);" d="M107.5,50.3
		c-15.4,10.5-36.5,6.4-46.9-9l-18.9-28c-10.4-15.4-6.4-36.4,9-46.8l40.9-27.6c8.2-5.6,19.4-3.3,25,4.9l36.6,54.1
		c5.6,8.2,3.4,19.4-4.9,25L107.5,50.3z M107.8,50.7L148.7,23c8.5-5.7,10.7-17.2,5-25.7l-36.5-54c-5.7-8.5-17.2-10.7-25.7-5L50.6-34
		C34.9-23.4,30.8-2.1,41.5,13.5l18.9,28C70.8,57.2,92.1,61.3,107.8,50.7z"/>
	
		<linearGradient id="SVGID_00000147215809738608391480000014941103268535178673_" gradientUnits="userSpaceOnUse" x1="104.1548" y1="123.3287" x2="69.7128" y2="113.1373" gradientTransform="matrix(0.9982 6.077340e-02 6.077340e-02 -0.9982 -34.8409 115.4254)">
		<stop  offset="0" style="stop-color:#0C7BAB"/>
		<stop  offset="0.6017" style="stop-color:#0C7BAB"/>
		<stop  offset="0.6521" style="stop-color:#207A9B"/>
		<stop  offset="0.7551" style="stop-color:#537772"/>
		<stop  offset="0.9002" style="stop-color:#A47330"/>
		<stop  offset="1" style="stop-color:#E07000"/>
	</linearGradient>
	<path style="display:inline;fill:url(#SVGID_00000147215809738608391480000014941103268535178673_);" d="M101.4,48.9
		c-19.2,13-45.5,7.9-58.5-11.3l-9.4-14C20.5,4.3,25.6-22,44.8-35l37.8-25.6c6.1-4.1,14.2-2.5,18.4,3.6l41.8,62
		c4.1,6.1,2.5,14.3-3.5,18.4L101.4,48.9z M101.7,49.3l37.8-25.6c6.2-4.2,7.9-12.7,3.6-19.1l-41.8-62c-4.2-6.3-12.7-7.9-19.1-3.7
		L44.5-35.5C25-22.3,19.9,4.3,33.1,23.8l9.4,14C55.7,57.3,82.2,62.5,101.7,49.3z"/>
	
		<linearGradient id="SVGID_00000060023928657400638970000012115896818737726852_" gradientUnits="userSpaceOnUse" x1="91.2084" y1="121.2006" x2="56.8056" y2="111.0208" gradientTransform="matrix(0.9982 6.077340e-02 6.077340e-02 -0.9982 -34.8409 115.4254)">
		<stop  offset="0" style="stop-color:#0C7BAB"/>
		<stop  offset="0.6017" style="stop-color:#0C7BAB"/>
		<stop  offset="0.6521" style="stop-color:#207A9B"/>
		<stop  offset="0.7551" style="stop-color:#537772"/>
		<stop  offset="0.9002" style="stop-color:#A47330"/>
		<stop  offset="1" style="stop-color:#E07000"/>
	</linearGradient>
	<path style="display:inline;fill:url(#SVGID_00000060023928657400638970000012115896818737726852_);" d="M95.3,47.5
		c-23,15.6-54.5,9.5-70.1-13.7s-9.6-54.6,13.5-70.2L73.5-60c3.8-2.6,9.1-1.6,11.7,2.3l47.1,69.9c2.6,3.9,1.6,9.1-2.3,11.8L95.3,47.5
		z M95.7,47.9l34.8-23.6c4.1-2.7,5.2-8.4,2.4-12.5L85.7-58c-2.7-4.1-8.4-5.2-12.5-2.4L38.4-36.8C15.1-20.9,9,10.8,24.7,34.2
		C40.6,57.5,72.2,63.6,95.7,47.9z"/>
</g>
<g>
	
		<linearGradient id="SVGID_00000035524440107792328840000010046410061038670004_" gradientUnits="userSpaceOnUse" x1="20.5155" y1="10.2176" x2="219.7221" y2="10.2176" gradientTransform="matrix(-0.9738 -0.168 -0.1658 0.9518 214.5056 23.1752)">
		<stop  offset="0" style="stop-color:#0C7BAB"/>
		<stop  offset="0.4095" style="stop-color:#0C7BAB"/>
		<stop  offset="0.5136" style="stop-color:#207A9B"/>
		<stop  offset="0.63" style="stop-color:#537772"/>
		<stop  offset="0.708" style="stop-color:#A47330"/>
		<stop  offset="1" style="stop-color:#E07000"/>
	</linearGradient>
	
		<path style="fill:none;stroke:url(#SVGID_00000035524440107792328840000010046410061038670004_);stroke-width:0.75;stroke-miterlimit:10;" d="
		M40.7,95.3l39.2-13.8c4.7-1.7,10-0.9,14.1,1.9l34,23.8c10.3,7.2,24.6-0.2,24.1-12.6L150.6,54c-0.2-4.9,2.1-9.6,6.2-12.5l33.5-24.1
		c10.2-7.3,7.3-23-4.9-26.4l-40.1-11.4c-4.8-1.4-8.7-5-10.3-9.7L121.6-69c-4-11.8-20.1-14-27.2-3.7L71.2-39
		c-2.8,4.1-7.5,6.5-12.5,6.5l-41.7,0.2C4.3-32.2-2.8-18,5-8.2l25.7,32.3c3.1,3.9,4.1,9,2.6,13.7L20.9,76.7
		C17.1,88.5,28.8,99.5,40.7,95.3z"/>
	
		<linearGradient id="SVGID_00000043429688844002489960000012965777056320009882_" gradientUnits="userSpaceOnUse" x1="36.9659" y1="10.2176" x2="203.2717" y2="10.2176" gradientTransform="matrix(-0.9738 -0.168 -0.1658 0.9518 214.5056 23.1752)">
		<stop  offset="0" style="stop-color:#0C7BAB"/>
		<stop  offset="0.4095" style="stop-color:#0C7BAB"/>
		<stop  offset="0.5136" style="stop-color:#207A9B"/>
		<stop  offset="0.63" style="stop-color:#537772"/>
		<stop  offset="0.708" style="stop-color:#A47330"/>
		<stop  offset="1" style="stop-color:#E07000"/>
	</linearGradient>
	
		<path style="fill:none;stroke:url(#SVGID_00000043429688844002489960000012965777056320009882_);stroke-width:0.75;stroke-miterlimit:10;" d="
		M49.8,81.6l32.7-11.5c3.9-1.4,8.3-0.8,11.8,1.6l28.4,19.9c8.6,6,20.5-0.2,20.1-10.5l-1.3-34c-0.2-4.1,1.8-8,5.1-10.4l27.9-20.1
		c8.5-6.1,6.1-19.1-4.1-22L137-15.1c-4-1.2-7.2-4.2-8.6-8.1l-11.1-32.3c-3.4-9.8-16.8-11.7-22.7-3.1L75.2-30.4
		C72.9-27,69-25,64.8-25L30-24.8c-10.6,0-16.4,11.9-9.9,20.1l21.5,26.9c2.6,3.2,3.4,7.5,2.1,11.4L33.3,66.1
		C30.1,75.9,39.9,85.1,49.8,81.6z"/>
	
		<linearGradient id="SVGID_00000023246371322412885460000018063815076901765813_" gradientUnits="userSpaceOnUse" x1="56.5628" y1="10.2176" x2="183.6748" y2="10.2176" gradientTransform="matrix(-0.9738 -0.168 -0.1658 0.9518 214.5056 23.1752)">
		<stop  offset="0" style="stop-color:#0C7BAB"/>
		<stop  offset="0.4095" style="stop-color:#0C7BAB"/>
		<stop  offset="0.5136" style="stop-color:#207A9B"/>
		<stop  offset="0.63" style="stop-color:#537772"/>
		<stop  offset="0.708" style="stop-color:#A47330"/>
		<stop  offset="1" style="stop-color:#E07000"/>
	</linearGradient>
	
		<path style="fill:none;stroke:url(#SVGID_00000023246371322412885460000018063815076901765813_);stroke-width:0.75;stroke-miterlimit:10;" d="
		M60.7,65.3l24.9-8.8c3-1.1,6.4-0.6,9,1.2L116.3,73c6.6,4.6,15.7-0.1,15.4-8l-1-26c-0.1-3.1,1.4-6.1,3.9-8L156,15.6
		c6.5-4.7,4.6-14.6-3.1-16.8l-25.5-7.3c-3.1-0.9-5.5-3.2-6.6-6.2l-8.5-24.7c-2.6-7.5-12.8-8.9-17.3-2.4L80.1-20.2
		c-1.8,2.6-4.8,4.1-8,4.2l-26.6,0.1c-8.1,0-12.5,9.1-7.6,15.4L54.4,20c2,2.5,2.6,5.7,1.6,8.7l-7.9,24.7C45.7,61,53.1,68,60.7,65.3z"
		/>
	
		<linearGradient id="SVGID_00000174604515706499240430000015892963079854753411_" gradientUnits="userSpaceOnUse" x1="74.1682" y1="10.2176" x2="166.0694" y2="10.2176" gradientTransform="matrix(-0.9738 -0.168 -0.1658 0.9518 214.5056 23.1752)">
		<stop  offset="0" style="stop-color:#0C7BAB"/>
		<stop  offset="0.4095" style="stop-color:#0C7BAB"/>
		<stop  offset="0.5136" style="stop-color:#207A9B"/>
		<stop  offset="0.63" style="stop-color:#537772"/>
		<stop  offset="0.708" style="stop-color:#A47330"/>
		<stop  offset="1" style="stop-color:#E07000"/>
	</linearGradient>
	
		<path style="fill:none;stroke:url(#SVGID_00000174604515706499240430000015892963079854753411_);stroke-width:0.75;stroke-miterlimit:10;" d="
		M70.5,50.7l18-6.3c2.2-0.8,4.6-0.4,6.5,0.9l15.6,10.9c4.7,3.3,11.3-0.1,11.1-5.8L121,31.7c-0.1-2.3,1-4.4,2.8-5.7l15.4-11.1
		c4.7-3.4,3.3-10.5-2.3-12.1l-18.4-5.3c-2.2-0.6-4-2.3-4.7-4.4l-6.1-17.8c-1.9-5.4-9.2-6.4-12.5-1.7L84.5-11c-1.3,1.9-3.4,3-5.8,3
		L59.6-8c-5.8,0-9,6.6-5.5,11.1L66,17.9c1.4,1.8,1.9,4.1,1.2,6.3l-5.7,17.9C59.7,47.5,65,52.6,70.5,50.7z"/>
	
		<linearGradient id="SVGID_00000147899877575861733960000015229610331707874737_" gradientUnits="userSpaceOnUse" x1="90.8404" y1="10.2176" x2="149.3972" y2="10.2176" gradientTransform="matrix(-0.9738 -0.168 -0.1658 0.9518 214.5056 23.1752)">
		<stop  offset="0" style="stop-color:#0C7BAB"/>
		<stop  offset="0.4095" style="stop-color:#0C7BAB"/>
		<stop  offset="0.5136" style="stop-color:#207A9B"/>
		<stop  offset="0.63" style="stop-color:#537772"/>
		<stop  offset="0.708" style="stop-color:#A47330"/>
		<stop  offset="1" style="stop-color:#E07000"/>
	</linearGradient>
	
		<path style="fill:none;stroke:url(#SVGID_00000147899877575861733960000015229610331707874737_);stroke-width:0.75;stroke-miterlimit:10;" d="
		M79.8,36.8l11.4-4c1.4-0.5,2.9-0.3,4.1,0.6l9.9,6.9c3,2.1,7.2-0.1,7-3.7l-0.4-11.9c-0.1-1.4,0.6-2.8,1.8-3.6l9.8-7
		c3-2.1,2.1-6.7-1.4-7.7L110.2,3c-1.4-0.4-2.5-1.5-3-2.8l-3.9-11.3c-1.2-3.4-5.9-4.1-7.9-1.1l-6.8,9.8c-0.8,1.2-2.2,1.9-3.6,1.9
		L72.9-0.4c-3.7,0-5.7,4.2-3.5,7l7.5,9.4c0.9,1.1,1.2,2.6,0.7,4L74,31.4C72.9,34.8,76.3,38,79.8,36.8z"/>
	
		<linearGradient id="SVGID_00000150089096412867283330000009674351369566980537_" gradientUnits="userSpaceOnUse" x1="103.1333" y1="10.2176" x2="137.1043" y2="10.2176" gradientTransform="matrix(-0.9738 -0.168 -0.1658 0.9518 214.5056 23.1752)">
		<stop  offset="0" style="stop-color:#0C7BAB"/>
		<stop  offset="0.4095" style="stop-color:#0C7BAB"/>
		<stop  offset="0.5136" style="stop-color:#207A9B"/>
		<stop  offset="0.63" style="stop-color:#537772"/>
		<stop  offset="0.708" style="stop-color:#A47330"/>
		<stop  offset="1" style="stop-color:#E07000"/>
	</linearGradient>
	
		<path style="fill:none;stroke:url(#SVGID_00000150089096412867283330000009674351369566980537_);stroke-width:0.75;stroke-miterlimit:10;" d="
		M86.6,26.5l6.6-2.3c0.8-0.3,1.7-0.2,2.4,0.3l5.7,4c1.7,1.2,4.1,0,4-2.1l-0.3-6.8c0-0.8,0.4-1.6,1-2.1l5.6-4
		c1.7-1.2,1.2-3.8-0.8-4.4l-6.7-1.9c-0.8-0.2-1.5-0.8-1.7-1.6L100.2-1c-0.7-2-3.4-2.3-4.6-0.6l-3.9,5.6c-0.5,0.7-1.3,1.1-2.1,1.1
		l-7,0c-2.1,0-3.3,2.4-2,4l4.3,5.4c0.5,0.7,0.7,1.5,0.4,2.3l-2.1,6.5C82.7,25.4,84.6,27.2,86.6,26.5z"/>
</g>
</svg>
